<svg xmlns="http://www.w3.org/2000/svg" viewBox="0 0 500 500"><g id="freepik--background-complete--inject-83"><rect x="58.73" y="78.79" width="26.48" height="11.19" style="fill:#ebebeb"></rect><rect x="43.96" y="64.68" width="26.48" height="11.19" style="fill:#ebebeb"></rect><rect x="73.5" y="64.68" width="26.48" height="11.19" style="fill:#ebebeb"></rect><rect x="334.6" y="161.24" width="26.48" height="11.19" style="fill:#ebebeb"></rect><rect x="319.82" y="147.13" width="26.48" height="11.19" style="fill:#ebebeb"></rect><rect x="349.37" y="147.13" width="26.48" height="11.19" style="fill:#ebebeb"></rect><rect x="414.79" y="64.68" width="26.48" height="11.19" style="fill:#ebebeb"></rect><rect x="414.79" y="366.64" width="26.48" height="11.19" style="fill:#ebebeb"></rect><rect x="429.56" y="352.53" width="26.48" height="11.19" style="fill:#ebebeb"></rect><rect x="43.96" y="366.63" width="26.48" height="11.19" style="fill:#ebebeb"></rect><rect x="116.92" y="233.49" width="26.48" height="11.19" transform="translate(260.32 478.16) rotate(180)" style="fill:#ebebeb"></rect><rect x="131.69" y="247.6" width="26.48" height="11.19" transform="translate(289.86 506.38) rotate(180)" style="fill:#ebebeb"></rect><polygon points="459.79 442 450.15 442 450.15 213.33 411.95 129 420.74 125.02 459.79 211.25 459.79 442" style="fill:#ebebeb"></polygon><polygon points="428.16 196.65 382.94 221.65 382.94 44.66 428.16 69.66 428.16 196.65" style="fill:#ebebeb"></polygon><polygon points="313.77 54.66 382.94 44.66 382.94 221.65 313.77 211.65 313.77 54.66" style="fill:#dbdbdb"></polygon><polygon points="319.13 60.43 377.58 51.98 377.58 213.93 319.13 205.48 319.13 60.43" style="fill:#fff"></polygon><polygon points="436.71 157.98 428.16 162.98 428.16 109.69 436.71 114.69 436.71 157.98" style="fill:#dbdbdb"></polygon></g><g id="freepik--Table--inject-83"><polygon points="30.67 442 85.5 441.76 140.34 441.67 250 441.5 359.66 441.67 414.5 441.75 469.33 442 414.5 442.24 359.66 442.33 250 442.5 140.34 442.33 85.5 442.24 30.67 442" style="fill:#263238"></polygon><polygon points="112.82 109.92 110.82 109.92 110.82 81.99 149.81 81.99 149.81 83.99 112.82 83.99 112.82 109.92" style="fill:#ebebeb"></polygon><polygon points="149.81 167.45 110.82 167.45 110.82 136.95 112.82 136.95 112.82 165.45 149.81 165.45 149.81 167.45" style="fill:#ebebeb"></polygon><polygon points="233.1 109.92 231.1 109.92 231.1 83.99 194.11 83.99 194.11 81.99 233.1 81.99 233.1 109.92" style="fill:#ebebeb"></polygon><polygon points="233.1 167.45 194.11 167.45 194.11 165.45 231.1 165.45 231.1 136.95 233.1 136.95 233.1 167.45" style="fill:#ebebeb"></polygon><polygon points="155.33 120.39 153.33 120.39 153.33 111.49 165.47 111.49 165.47 113.49 155.33 113.49 155.33 120.39" style="fill:#ebebeb"></polygon><polygon points="165.47 137.95 153.33 137.95 153.33 128.31 155.33 128.31 155.33 135.95 165.47 135.95 165.47 137.95" style="fill:#ebebeb"></polygon><polygon points="190.59 120.39 188.59 120.39 188.59 113.49 178.45 113.49 178.45 111.49 190.59 111.49 190.59 120.39" style="fill:#ebebeb"></polygon><polygon points="190.59 137.95 178.45 137.95 178.45 135.95 188.59 135.95 188.59 128.31 190.59 128.31 190.59 137.95" style="fill:#ebebeb"></polygon></g><g id="freepik--Camera--inject-83"><rect x="149.59" y="180.57" width="55.87" height="59.19" style="fill:#455a64"></rect><rect x="205.46" y="180.57" width="70.06" height="59.19" style="fill:#37474f"></rect><rect x="64.02" y="180.57" width="54.54" height="59.19" style="fill:#455a64"></rect><rect x="70.83" y="188.24" width="40.91" height="43.87" style="fill:#455a64"></rect><polygon points="138.71 234.77 132.08 239.77 118.55 239.77 118.55 180.57 131.91 180.57 138.71 185.57 138.71 234.77" style="fill:#37474f"></polygon><rect x="138.71" y="188.81" width="53.36" height="42.73" style="fill:#263238"></rect><polygon points="70.83 188.24 79.66 197.07 79.66 224.25 70.83 232.1 70.83 188.24" style="fill:#37474f"></polygon><polygon points="79.66 197.07 70.83 188.24 111.74 188.24 111.74 197.07 79.66 197.07" style="fill:#263238"></polygon><polygon points="70.83 232.1 79.66 224.25 111.74 224.25 111.74 232.1 70.83 232.1" style="fill:#263238"></polygon><path d="M111.74,201.41v18.75a15.06,15.06,0,0,1-6.43,4.09H95.47a14,14,0,0,1,.85-27.18h8.14A15.11,15.11,0,0,1,111.74,201.41Z" style="fill:#37474f"></path><path d="M111.74,201v19.53a13.61,13.61,0,0,1-5.53,3.7h-9A14.4,14.4,0,0,1,98,197.07h7.42A13.55,13.55,0,0,1,111.74,201Z" style="fill:#ebebeb"></path><rect x="162.1" y="169.71" width="10.86" height="10.86" style="fill:#37474f"></rect><rect x="132.62" y="158.39" width="51.88" height="11.32" style="fill:#37474f"></rect><rect x="90.77" y="153.85" width="56.25" height="20.4" rx="6.74" style="fill:#263238"></rect><rect x="184.49" y="161.64" width="6.18" height="4.82" style="fill:#455a64"></rect><rect x="218.32" y="199.09" width="6.87" height="22.17" style="fill:#455a64"></rect><rect x="223.41" y="194.62" width="39.02" height="31.1" style="fill:#455a64"></rect><rect x="194.37" y="158.39" width="9.16" height="22.19" style="fill:#37474f"></rect><polygon points="253.99 165.67 194.37 165.67 194.37 156.52 201.02 150.51 253.99 150.51 253.99 165.67" style="fill:#37474f"></polygon><polygon points="272.01 141.04 253.99 150.51 253.99 165.67 272.01 175.14 272.01 141.04" style="fill:#263238"></polygon><rect x="186.34" y="254.4" width="14.63" height="14.63" style="fill:#37474f"></rect><rect x="219.82" y="254.4" width="14.63" height="14.63" style="fill:#455a64"></rect><rect x="174.5" y="239.77" width="30.96" height="14.63" style="fill:#37474f"></rect><rect x="205.46" y="239.77" width="43.36" height="14.63" style="fill:#455a64"></rect><rect x="190.67" y="315.77" width="15.2" height="14.63" style="fill:#37474f"></rect><rect x="205.87" y="315.77" width="21.28" height="14.63" style="fill:#455a64"></rect><rect x="181.69" y="330.4" width="22.69" height="7.32" style="fill:#37474f"></rect><rect x="204.39" y="330.4" width="31.78" height="7.32" style="fill:#455a64"></rect><path d="M231.1,265.63v50.15H187.21v0c-9.46-.54-17-11.55-17-25.06s7.54-24.51,17-25.05v0Z" style="fill:#263238"></path><ellipse cx="231.1" cy="290.7" rx="17.72" ry="25.07" style="fill:#37474f"></ellipse><ellipse cx="231.1" cy="290.7" rx="14.97" ry="21.19" style="fill:#455a64"></ellipse><polygon points="159.09 442 154.44 442 185.54 337.72 197.54 337.72 159.09 442" style="fill:#263238"></polygon><polygon points="258.35 442 264.33 442 233.24 337.72 219.89 337.72 258.35 442" style="fill:#263238"></polygon><polygon points="211.5 442 205.52 442 202.72 337.72 216.06 337.72 211.5 442" style="fill:#263238"></polygon></g></svg>